<?xml version="1.0" encoding="utf-8"?>
<!-- Generator: Adobe Illustrator 18.1.0, SVG Export Plug-In . SVG Version: 6.00 Build 0)  -->
<svg version="1.1" id="Layer_1" xmlns="http://www.w3.org/2000/svg" xmlns:xlink="http://www.w3.org/1999/xlink" x="0px" y="0px"
	 viewBox="0 0 44.9 50" enable-background="new 0 0 44.9 50" xml:space="preserve">
<g>
	<g>
		<path fill="#FFFFFF" d="M42.1,41.8c0.1,0.8,0.8,1.3,1.5,1.2c0.8-0.1,1.3-0.8,1.2-1.5c-0.1-0.8-0.8-1.3-1.5-1.2
			C42.6,40.3,42,41,42.1,41.8z"/>
	</g>
	<g>
		<path fill="#FFFFFF" d="M33.5,16c0.1,0.8,0.8,1.4,1.6,1.3c0.8-0.1,1.4-0.8,1.3-1.6s-0.8-1.4-1.6-1.3C34,14.5,33.4,15.2,33.5,16z"
			/>
	</g>
	<g>
		<path fill="#FFFFFF" d="M13.7,3.6c0.1,0.7,0.7,1.2,1.4,1.1s1.2-0.7,1.1-1.4c-0.1-0.7-0.7-1.2-1.4-1.1C14.2,2.3,13.6,2.9,13.7,3.6z
			"/>
	</g>
	<g>
		<path fill="#FFFFFF" d="M1.9,17.2c0.1,1,1,1.8,2,1.7s1.8-1,1.7-2c-0.1-1-1-1.8-2-1.7C2.5,15.2,1.8,16.1,1.9,17.2z"/>
	</g>
	<g>
		<path fill="#FFFFFF" d="M26.3,45.6c0.1,1,1,1.7,2,1.6c1-0.1,1.7-1,1.6-2c-0.1-1-1-1.7-2-1.6C26.9,43.7,26.2,44.6,26.3,45.6z"/>
	</g>
	<g>
		<path fill="#FFFFFF" d="M11.5,37c0.1,0.8,0.8,1.3,1.6,1.3s1.3-0.8,1.3-1.6c-0.1-0.8-0.8-1.3-1.6-1.3S11.5,36.2,11.5,37z"/>
	</g>
	<g>
		<path fill="#FFFFFF" d="M22.1,13.3c0,0.4,0.4,0.7,0.8,0.6c0.4,0,0.7-0.4,0.6-0.8s-0.4-0.7-0.8-0.6C22.3,12.6,22.1,12.9,22.1,13.3z
			"/>
	</g>
	<g>
		<path fill="#FFFFFF" d="M16.2,37.5c0.1,0.8,0.8,1.4,1.6,1.3c0.8-0.1,1.4-0.8,1.3-1.6c-0.1-0.8-0.8-1.4-1.6-1.3
			C16.7,36,16.1,36.7,16.2,37.5z"/>
	</g>
	<g>
		<path fill="#FFFFFF" d="M0,6.3c0.1,1.1,1.1,2,2.3,1.9C3.5,8,4.3,7,4.2,5.8S3,3.8,1.9,4C0.7,4.1-0.1,5.1,0,6.3z"/>
	</g>
	<g>
		<path fill="#FFFFFF" d="M36.9,9.7c0.1,1.3,1.3,2.3,2.6,2.1c1.3-0.1,2.3-1.3,2.1-2.6c-0.1-1.3-1.3-2.3-2.6-2.1S36.8,8.4,36.9,9.7z"
			/>
	</g>
	<g>
		<path fill="#FFFFFF" d="M3.7,48c0.1,1.1,1.1,1.9,2.2,1.8s1.9-1.1,1.8-2.2c-0.1-1.1-1.1-1.9-2.2-1.8S3.6,46.9,3.7,48z"/>
	</g>
	<g>
		<path fill="#FFFFFF" d="M13,11.2c0,0.4,0.4,0.7,0.8,0.6s0.7-0.4,0.6-0.8c0-0.4-0.4-0.7-0.8-0.6C13.2,10.4,12.9,10.8,13,11.2z"/>
	</g>
	<g>
		<path fill="#FFFFFF" d="M18.2,16.6c0.1,0.9,0.9,1.6,1.8,1.5c0.9-0.1,1.6-0.9,1.5-1.8c-0.1-0.9-0.9-1.6-1.8-1.5
			C18.8,14.9,18.1,15.7,18.2,16.6z"/>
	</g>
	<g>
		<path fill="#FFFFFF" d="M41.1,30.9c0.1,0.5,0.5,0.9,1,0.8c0.5-0.1,0.9-0.5,0.8-1c-0.1-0.5-0.5-0.9-1-0.8
			C41.4,29.9,41,30.4,41.1,30.9z"/>
	</g>
	<g>
		<path fill="#FFFFFF" d="M17.5,1.5c0.1,0.6,0.6,1.1,1.3,1c0.6-0.1,1.1-0.6,1-1.3c-0.1-0.6-0.6-1.1-1.3-1
			C17.8,0.3,17.4,0.9,17.5,1.5z"/>
	</g>
	<g>
		<line fill="none" stroke="#FFFFFF" stroke-width="0.3" stroke-miterlimit="10" x1="43.5" y1="41.6" x2="34.9" y2="15.8"/>
		<line fill="none" stroke="#FFFFFF" stroke-width="0.3" stroke-miterlimit="10" x1="43.5" y1="41.6" x2="13" y2="36.9"/>
		<line fill="none" stroke="#FFFFFF" stroke-width="0.3" stroke-miterlimit="10" x1="43.5" y1="41.6" x2="2.1" y2="6"/>
		<line fill="none" stroke="#FFFFFF" stroke-width="0.3" stroke-miterlimit="10" x1="43.5" y1="41.6" x2="42" y2="30.8"/>
		<line fill="none" stroke="#FFFFFF" stroke-width="0.3" stroke-miterlimit="10" x1="34.9" y1="15.8" x2="15" y2="3.5"/>
		<line fill="none" stroke="#FFFFFF" stroke-width="0.3" stroke-miterlimit="10" x1="34.9" y1="15.8" x2="13" y2="36.9"/>
		<line fill="none" stroke="#FFFFFF" stroke-width="0.3" stroke-miterlimit="10" x1="34.9" y1="15.8" x2="39.3" y2="9.5"/>
		<line fill="none" stroke="#FFFFFF" stroke-width="0.3" stroke-miterlimit="10" x1="15" y1="3.5" x2="3.8" y2="17"/>
		<line fill="none" stroke="#FFFFFF" stroke-width="0.3" stroke-miterlimit="10" x1="15" y1="3.5" x2="13" y2="36.9"/>
		<line fill="none" stroke="#FFFFFF" stroke-width="0.3" stroke-miterlimit="10" x1="3.8" y1="17" x2="28.1" y2="45.4"/>
		<line fill="none" stroke="#FFFFFF" stroke-width="0.3" stroke-miterlimit="10" x1="3.8" y1="17" x2="22.8" y2="13.2"/>
		<line fill="none" stroke="#FFFFFF" stroke-width="0.3" stroke-miterlimit="10" x1="3.8" y1="17" x2="2.1" y2="6"/>
		<line fill="none" stroke="#FFFFFF" stroke-width="0.3" stroke-miterlimit="10" x1="28.1" y1="45.4" x2="22.8" y2="13.2"/>
		<line fill="none" stroke="#FFFFFF" stroke-width="0.3" stroke-miterlimit="10" x1="28.1" y1="45.4" x2="2.1" y2="6"/>
		<line fill="none" stroke="#FFFFFF" stroke-width="0.3" stroke-miterlimit="10" x1="13" y1="36.9" x2="2.1" y2="6"/>
		<line fill="none" stroke="#FFFFFF" stroke-width="0.3" stroke-miterlimit="10" x1="13" y1="36.9" x2="39.3" y2="9.5"/>
		<line fill="none" stroke="#FFFFFF" stroke-width="0.3" stroke-miterlimit="10" x1="22.8" y1="13.2" x2="17.6" y2="37.4"/>
		<line fill="none" stroke="#FFFFFF" stroke-width="0.3" stroke-miterlimit="10" x1="22.8" y1="13.2" x2="5.7" y2="47.8"/>
		<line fill="none" stroke="#FFFFFF" stroke-width="0.3" stroke-miterlimit="10" x1="17.6" y1="37.4" x2="5.7" y2="47.8"/>
		<line fill="none" stroke="#FFFFFF" stroke-width="0.3" stroke-miterlimit="10" x1="17.6" y1="37.4" x2="19.9" y2="16.4"/>
		<line fill="none" stroke="#FFFFFF" stroke-width="0.3" stroke-miterlimit="10" x1="2.1" y1="6" x2="39.3" y2="9.5"/>
		<line fill="none" stroke="#FFFFFF" stroke-width="0.3" stroke-miterlimit="10" x1="2.1" y1="6" x2="5.7" y2="47.8"/>
		<line fill="none" stroke="#FFFFFF" stroke-width="0.3" stroke-miterlimit="10" x1="2.1" y1="6" x2="19.9" y2="16.4"/>
		<line fill="none" stroke="#FFFFFF" stroke-width="0.3" stroke-miterlimit="10" x1="2.1" y1="6" x2="22.8" y2="13.2"/>
		<line fill="none" stroke="#FFFFFF" stroke-width="0.3" stroke-miterlimit="10" x1="39.3" y1="9.5" x2="13.7" y2="11.1"/>
		<line fill="none" stroke="#FFFFFF" stroke-width="0.3" stroke-miterlimit="10" x1="39.3" y1="9.5" x2="19.9" y2="16.4"/>
		<line fill="none" stroke="#FFFFFF" stroke-width="0.3" stroke-miterlimit="10" x1="39.3" y1="9.5" x2="42" y2="30.8"/>
		<line fill="none" stroke="#FFFFFF" stroke-width="0.3" stroke-miterlimit="10" x1="5.7" y1="47.8" x2="42" y2="30.8"/>
		<line fill="none" stroke="#FFFFFF" stroke-width="0.3" stroke-miterlimit="10" x1="13.7" y1="11.1" x2="19.9" y2="16.4"/>
		<line fill="none" stroke="#FFFFFF" stroke-width="0.3" stroke-miterlimit="10" x1="19.9" y1="16.4" x2="42" y2="30.8"/>
		<line fill="none" stroke="#FFFFFF" stroke-width="0.3" stroke-miterlimit="10" x1="19.9" y1="16.4" x2="18.6" y2="1.4"/>
		<line fill="none" stroke="#FFFFFF" stroke-width="0.3" stroke-miterlimit="10" x1="42" y1="30.8" x2="18.6" y2="1.4"/>
	</g>
</g>
<g>
	<path fill="#222222" d="M19,16.8h-4.2c-1.4,0.8-2.6,1.3-4.1,1.9v4c1-0.2,2.2-0.6,3.1-1v6.7h-3.1v4h11.2v-4H19V16.8z"/>
	<path fill="#222222" d="M31.3,21.6c-1.5,0-2.7,0.6-3.6,1.7l0.1-2.7h7.4v-3.8H23.8l-0.4,8.9l4.9,0.6c0.3-0.7,0.7-1,1.2-1
		c0.8,0,1.2,0.6,1.2,2.1c0,1.4-0.5,1.9-1.2,1.9c-0.8,0-1.3-0.6-1.5-2.3l-5,0.5c0.3,3.3,2.4,5.2,6.4,5.2c4.1,0,6.7-2.1,6.7-5.8
		C36.3,23.7,34.5,21.6,31.3,21.6z"/>
</g>
</svg>
