<?xml version="1.0" encoding="utf-8"?>
<!-- Generator: Adobe Illustrator 18.1.0, SVG Export Plug-In . SVG Version: 6.00 Build 0)  -->
<svg version="1.1" id="Layer_1" xmlns="http://www.w3.org/2000/svg" xmlns:xlink="http://www.w3.org/1999/xlink" x="0px" y="0px"
	 viewBox="0 0 288.8 288.7" enable-background="new 0 0 288.8 288.7" xml:space="preserve">
<g>
	<g>
		<path fill="#E882B5" d="M282.5,156.9c3.5,0,6.4-2.9,6.4-6.4c0-3.5-2.9-6.4-6.4-6.4s-6.4,2.9-6.4,6.4
			C276.1,154.1,278.9,156.9,282.5,156.9z"/>
	</g>
	<g>
		<path fill="#E882B5" d="M263.4,106.6c3.8,0,6.9-3.1,6.9-6.9c0-3.8-3.1-6.9-6.9-6.9c-3.8,0-6.9,3.1-6.9,6.9
			C256.5,103.5,259.6,106.6,263.4,106.6z"/>
	</g>
	<g>
		<path fill="#E882B5" d="M189.4,55.2c3.9,0,7.1-3.2,7.1-7.1s-3.2-7.1-7.1-7.1s-7.1,3.2-7.1,7.1S185.5,55.2,189.4,55.2z"/>
	</g>
	<g>
		<path fill="#E882B5" d="M76.8,54.7c3.2,0,5.7-2.6,5.7-5.7s-2.6-5.7-5.7-5.7s-5.7,2.6-5.7,5.7S73.7,54.7,76.8,54.7z"/>
	</g>
	<g>
		<path fill="#E882B5" d="M252.5,67.8c4.3,0,7.8-3.5,7.8-7.8s-3.5-7.8-7.8-7.8s-7.8,3.5-7.8,7.8S248.2,67.8,252.5,67.8z"/>
	</g>
	<g>
		<path fill="#E882B5" d="M47.4,12c1.8,0,3.2-1.5,3.2-3.2s-1.5-3.2-3.2-3.2S44.1,7,44.1,8.7S45.6,12,47.4,12z"/>
	</g>
	<g>
		<path fill="#E882B5" d="M201.2,118.8c4.1,0,7.3-3.3,7.3-7.3s-3.3-7.3-7.3-7.3s-7.3,3.3-7.3,7.3S197.1,118.8,201.2,118.8z"/>
	</g>
	<g>
		<path fill="#E882B5" d="M187.3,287.1c3.2,0,5.8-2.6,5.8-5.8c0-3.2-2.6-5.8-5.8-5.8c-3.2,0-5.8,2.6-5.8,5.8
			C181.5,284.5,184.1,287.1,187.3,287.1z"/>
	</g>
	<g>
		<path fill="#E882B5" d="M120.6,288.7c4.4,0,7.9-3.5,7.9-7.9s-3.5-7.9-7.9-7.9c-4.4,0-7.9,3.5-7.9,7.9S116.2,288.7,120.6,288.7z"/>
	</g>
	<g>
		<path fill="#E882B5" d="M170.2,12.4c3.4,0,6.2-2.8,6.2-6.2S173.6,0,170.2,0c-3.4,0-6.2,2.8-6.2,6.2S166.7,12.4,170.2,12.4z"/>
	</g>
	<g>
		<path fill="#E882B5" d="M9.6,214c5.3,0,9.6-4.3,9.6-9.6c0-5.3-4.3-9.6-9.6-9.6S0,199,0,204.3C0,209.7,4.3,214,9.6,214z"/>
	</g>
	<g>
		<path fill="#E882B5" d="M232.6,78.2c4.7,0,8.5-3.8,8.5-8.5c0-4.7-3.8-8.5-8.5-8.5s-8.5,3.8-8.5,8.5
			C224.1,74.4,227.9,78.2,232.6,78.2z"/>
	</g>
	<g>
		<path fill="#E882B5" d="M29.3,187.1c2.8,0,5-2.2,5-5c0-2.8-2.2-5-5-5s-5,2.2-5,5C24.3,184.9,26.6,187.1,29.3,187.1z"/>
	</g>
	<g>
		<path fill="#E882B5" d="M35.4,139.2c4,0,7.3-3.3,7.3-7.3s-3.3-7.3-7.3-7.3s-7.3,3.3-7.3,7.3S31.4,139.2,35.4,139.2z"/>
	</g>
	<g>
		<path fill="#E882B5" d="M159.6,160.9c3.3,0,6-2.7,6-6c0-3.3-2.7-6-6-6s-6,2.7-6,6C153.6,158.2,156.3,160.9,159.6,160.9z"/>
	</g>
	<g>
		
			<rect x="245.8" y="124.9" transform="matrix(0.3508 0.9364 -0.9364 0.3508 294.351 -174.3594)" fill="#E882B5" width="54.3" height="0.5"/>
	</g>
	<g>
		
			<rect x="27.7" y="79.4" transform="matrix(0.8563 0.5166 -0.5166 0.8563 64.8505 -73.7441)" fill="#E882B5" width="274.5" height="0.5"/>
	</g>
	<g>
		
			<rect x="201.3" y="111.8" transform="matrix(0.6278 0.7784 -0.7784 0.6278 242.8948 -76.5677)" fill="#E882B5" width="0.5" height="207.8"/>
	</g>
	<g>
		
			<rect x="134.9" y="78.1" transform="matrix(0.614 0.7893 -0.7893 0.614 149.2221 -148.381)" fill="#E882B5" width="182.9" height="0.5"/>
	</g>
	<g>
		
			<rect x="181.3" y="73.6" transform="matrix(0.8199 0.5725 -0.5725 0.8199 83.0666 -116.3225)" fill="#E882B5" width="90.2" height="0.5"/>
	</g>
	<g>
		
			<rect x="38.2" y="54" transform="matrix(0.9216 0.388 -0.388 0.9216 33.2162 -56.0529)" fill="#E882B5" width="234.4" height="0.5"/>
	</g>
	<g>
		
			<rect x="150.8" y="52.7" transform="matrix(0.7061 0.7081 -0.7081 0.7061 101.2002 -137.9482)" fill="#E882B5" width="132" height="0.5"/>
	</g>
	<g>
		<rect x="76.8" y="48.3" fill="#E882B5" width="112.6" height="0.5"/>
	</g>
	<g>
		
			<rect x="44.7" y="28.1" transform="matrix(0.9638 0.2666 -0.2666 0.9638 11.8551 -30.5417)" fill="#E882B5" width="147.4" height="0.5"/>
	</g>
	<g>
		
			<rect x="76.6" y="54.3" transform="matrix(0.9981 6.229178e-02 -6.229178e-02 0.9981 3.7151 -10.1515)" fill="#E882B5" width="176.1" height="0.5"/>
	</g>
	<g>
		
			<rect x="69.4" y="80" transform="matrix(0.8936 0.4489 -0.4489 0.8936 50.8197 -53.8523)" fill="#E882B5" width="139.2" height="0.5"/>
	</g>
	<g>
		
			<rect x="-19.3" y="164.7" transform="matrix(0.1854 0.9827 -0.9827 0.1854 242.448 37.3719)" fill="#E882B5" width="235.9" height="0.5"/>
	</g>
	<g>
		
			<rect x="226.6" y="49.4" transform="matrix(0.7081 0.7061 -0.7061 0.7081 126.7681 -135.1551)" fill="#E882B5" width="0.5" height="72.7"/>
	</g>
	<g>
		
			<rect x="186.3" y="41.8" transform="matrix(0.8592 0.5116 -0.5116 0.8592 113.448 -71.4452)" fill="#E882B5" width="0.5" height="257.3"/>
	</g>
	<g>
		
			<rect x="-56.9" y="144.5" transform="matrix(0.2597 0.9657 -0.9657 0.2597 201.9892 26.0975)" fill="#E882B5" width="281.8" height="0.5"/>
	</g>
	<g>
		
			<rect x="108.5" y="-53.9" transform="matrix(2.147946e-02 0.9998 -0.9998 2.147946e-02 113.9083 -101.4473)" fill="#E882B5" width="0.5" height="122.8"/>
	</g>
	<g>
		
			<rect x="194" y="111.2" transform="matrix(0.9966 8.207510e-02 -8.207510e-02 0.9966 16.7755 -15.2793)" fill="#E882B5" width="0.5" height="170.4"/>
	</g>
	<g>
		
			<rect x="160.6" y="102.4" transform="matrix(0.9029 0.4299 -0.4299 0.9029 99.9646 -50.1066)" fill="#E882B5" width="0.5" height="187.5"/>
	</g>
	<g>
		
			<rect x="105.2" y="51.5" transform="matrix(0.4362 0.8998 -0.8998 0.4362 201.523 -5.8192)" fill="#E882B5" width="0.5" height="212.9"/>
	</g>
	<g>
		
			<rect x="1.7" y="242.6" transform="matrix(0.9176 0.3976 -0.3976 0.9176 104.6637 -19.1304)" fill="#E882B5" width="193.6" height="0.5"/>
	</g>
	<g>
		
			<rect x="15.1" y="231.5" transform="matrix(0.8469 0.5318 -0.5318 0.8469 139.8219 -22.1205)" fill="#E882B5" width="186.5" height="0.5"/>
	</g>
	<g>
		
			<rect x="145.1" y="4" transform="matrix(0.9837 0.1796 -0.1796 0.9837 28.1334 -23.7699)" fill="#E882B5" width="0.5" height="279.1"/>
	</g>
	<g>
		
			<rect x="-2.3" y="242.3" transform="matrix(0.8232 0.5677 -0.5677 0.8232 149.2321 5.9304)" fill="#E882B5" width="134.7" height="0.5"/>
	</g>
	<g>
		
			<rect x="7.8" y="231.2" transform="matrix(0.6787 0.7344 -0.7344 0.6787 194.0928 19.3346)" fill="#E882B5" width="134.4" height="0.5"/>
	</g>
	<g>
		
			<rect x="-7.8" y="206.1" transform="matrix(0.4962 0.8682 -0.8682 0.4962 218.4463 36.2491)" fill="#E882B5" width="171.6" height="0.5"/>
	</g>
	<g>
		
			<rect x="156.8" y="37.7" transform="matrix(0.7004 0.7137 -0.7137 0.7004 87.4316 -132.3408)" fill="#E882B5" width="89.1" height="0.5"/>
	</g>
	<g>
		
			<rect x="99.5" y="-18.5" transform="matrix(0.7809 0.6247 -0.6247 0.7809 80.6795 -41.6843)" fill="#E882B5" width="0.5" height="225.4"/>
	</g>
	<g>
		
			<rect x="102.5" y="-23.1" transform="matrix(0.6822 0.7311 -0.7311 0.6822 83.1345 -53.2189)" fill="#E882B5" width="0.5" height="184.3"/>
	</g>
	<g>
		
			<rect x="22.3" y="129.7" transform="matrix(0.9418 0.3361 -0.3361 0.9418 57.8084 2.2074)" fill="#E882B5" width="0.5" height="76.9"/>
	</g>
	<g>
		
			<rect x="130.7" y="9.8" transform="matrix(0.4843 0.8749 -0.8749 0.4843 177.7299 -49.6246)" fill="#E882B5" width="0.5" height="232.2"/>
	</g>
	<g>
		
			<rect x="32.1" y="131.7" transform="matrix(0.9926 0.1211 -0.1211 0.9926 19.259 -2.7669)" fill="#E882B5" width="0.5" height="50.6"/>
	</g>
	<g>
		
			<rect x="94.2" y="101.9" transform="matrix(0.2047 0.9788 -0.9788 0.2047 240.0484 41.5074)" fill="#E882B5" width="0.5" height="133.1"/>
	</g>
	<g>
		
			<rect x="34.4" y="143.1" transform="matrix(0.9833 0.1818 -0.1818 0.9833 27.6826 -15.3377)" fill="#E882B5" width="126.3" height="0.5"/>
	</g>
</g>
<g>
	<polygon fill="#222222" points="94.9,74.2 91.8,61.6 80.9,61.6 80.9,84.7 87.3,84.7 87.3,69.8 91,84.7 97.3,84.7 101.1,69.8 
		101.1,84.7 108.5,84.7 108.5,61.6 97.9,61.6 	"/>
	<rect x="131.8" y="61.6" fill="#222222" width="7.8" height="23.1"/>
	<path fill="#222222" d="M174,85.1c5.9,0,9.7-2.8,10.4-8.9l-7.2-0.7c-0.4,3.7-1.4,4.6-3,4.6c-2.1,0-3.2-1.6-3.2-7v-0.1
		c0-5.3,1.1-7,3.2-7c1.7,0,2.6,1.2,2.9,4.4l7.1-0.7c-0.7-5.2-3.7-8.7-10.2-8.7c-7,0-11.2,4.7-11.2,12v0.1
		C162.8,80.4,167,85.1,174,85.1z"/>
	<path fill="#222222" d="M212.6,80.7h6.7l1,3.9h8.1l-7-23.1h-9.8l-7,23.1h6.9L212.6,80.7z M216,68l2,7.5h-4L216,68z"/>
	<path fill="#222222" d="M89.1,126.5c3,0,5-1.2,6-3.5l0.4,3h5.7v-13.1H90.6v5.2H94v0.1c0,2-1.1,3.3-2.8,3.3c-2.4,0-3.4-1.6-3.4-7
		v-0.1c0-5.3,1.1-7,3.4-7c1.6,0,2.7,1,3,2.9l6.9-0.7c-0.6-4.7-3.8-7.3-10-7.3c-7.3,0-11.3,4.8-11.3,12v0.1
		C79.7,122.7,83.9,126.5,89.1,126.5z"/>
	<path fill="#222222" d="M143.4,110.6c0-4.5-2.9-7.6-9.5-7.6h-11.1V126h7.8v-7.8h1.8l3.7,7.8h8.2l-5-9.5
		C142.2,115.3,143.4,113.4,143.4,110.6z M132.5,113.2h-1.8V108h1.8c2,0,2.8,0.7,2.8,2.6C135.3,112.4,134.5,113.2,132.5,113.2z"/>
	<path fill="#222222" d="M170.4,103l-7,23.1h6.9l1-3.9h6.7l1,3.9h8.1l-7-23.1H170.4z M172.7,116.9l2-7.5l2,7.5H172.7z"/>
	<path fill="#222222" d="M218.2,103h-10.3V126h10.3c7.5,0,11.2-4.3,11.2-11.5v-0.1C229.4,107.3,225.7,103,218.2,103z M221.3,114.5
		c0,4.8-1,6.3-4.4,6.3h-1.2v-12.7h1.2C220.3,108.1,221.3,109.6,221.3,114.5L221.3,114.5z"/>
	<path fill="#222222" d="M93.7,152.3l-2.6-0.5c-1.4-0.3-1.9-0.6-1.9-1.3c0-0.8,0.7-1.3,2.3-1.3c1.8,0,4.1,0.9,6,2.4l3.4-4.6
		c-2.6-2-6-3-9.4-3c-6.9,0-10.3,3.4-10.3,7.7c0,4,2.4,6.3,6.7,7.2l2.6,0.5c1.8,0.4,2.4,0.9,2.4,1.7c0,0.8-0.7,1.5-2.2,1.5
		c-2,0-4.4-1-7.3-3.3l-3.5,4.8c2.4,2.3,6.7,3.9,11.4,3.9c6.2,0,10.1-3.6,10.1-8C101.3,156.1,99.3,153.4,93.7,152.3z"/>
	<polygon fill="#222222" points="127.7,159 132.8,159 132.8,167.4 140.6,167.4 140.6,144.4 132.8,144.4 132.8,152.7 127.7,152.7 
		127.7,144.4 119.9,144.4 119.9,167.4 127.7,167.4 	"/>
	<path fill="#222222" d="M180.7,155.9L180.7,155.9c0-7.6-4.5-12.1-11.1-12.1c-6.7,0-11.1,4.5-11.1,12v0.1c0,7.5,4.5,12,11.1,12
		C176.2,167.9,180.7,163.4,180.7,155.9z M166.6,155.9L166.6,155.9c0-5.2,1.1-7.1,3-7.1c1.9,0,3,1.8,3,7v0.1c0,5.1-1.1,7-3,7
		C167.6,162.9,166.6,161.1,166.6,155.9z"/>
	<polygon fill="#222222" points="213.6,154.7 215.8,167.4 225.6,167.4 229.7,144.4 222.8,144.4 220.9,159.9 218.1,144.4 
		210.2,144.4 207.4,159.9 205.6,144.4 197.4,144.4 201.5,167.4 211.3,167.4 	"/>
	<path fill="#222222" d="M100.1,192.6c0-4.3-3-7.4-9.3-7.4c-5.7,0-9.3,3.1-9.9,8.5l7.4,0.7c0.2-3.3,1-4.3,2.2-4.3
		c0.9,0,1.4,0.6,1.4,1.8c0,2.2-0.9,3.6-4.7,6.4l-5.9,4.3v6.1h18.6v-6H90l2.1-0.9C97.8,199.7,100.1,196.9,100.1,192.6z"/>
	<path fill="#222222" d="M132.3,185.3c-6.7,0-11.1,4.5-11.1,12v0.1c0,7.5,4.5,12,11.1,12s11.1-4.5,11.1-12v-0.1
		C143.5,189.7,139,185.3,132.3,185.3z M135.3,197.3c0,5.1-1.1,7-3,7s-3-1.8-3-7v-0.1c0-5.1,1.1-7,3-7S135.3,192.1,135.3,197.3
		L135.3,197.3z"/>
	<path fill="#222222" d="M179.5,185.8h-6.2c-2.1,1.2-3.9,2-6.2,2.8v5.9c1.4-0.4,3.2-0.9,4.5-1.5v10h-4.5v5.9h16.7v-5.9h-4.3V185.8z"
		/>
	<path fill="#222222" d="M220.9,193c-2.2,0-4,0.9-5.3,2.5l0.2-4.1h11v-5.7h-17l-0.6,13.2l7.3,0.9c0.4-1,1.1-1.5,1.8-1.5
		c1.2,0,1.8,0.8,1.8,3.1c0,2.1-0.7,2.9-1.8,2.9c-1.1,0-2-0.9-2.2-3.4l-7.4,0.7c0.5,4.9,3.6,7.7,9.6,7.7c6,0,10-3.1,10-8.6
		C228.2,196.1,225.6,193,220.9,193z"/>
</g>
</svg>
