<?xml version="1.0" encoding="utf-8"?>
<!-- Generator: Adobe Illustrator 18.1.0, SVG Export Plug-In . SVG Version: 6.00 Build 0)  -->
<svg version="1.1" id="Layer_1" xmlns="http://www.w3.org/2000/svg" xmlns:xlink="http://www.w3.org/1999/xlink" x="0px" y="0px"
	 viewBox="0 0 260.9 288" enable-background="new 0 0 260.9 288" xml:space="preserve">
<g>
	<g>
		<path fill="#E782B4" d="M244.7,241.4c0.5,4.5,4.5,7.7,8.9,7.2s7.7-4.5,7.2-8.9c-0.5-4.5-4.5-7.7-8.9-7.2S244.2,237,244.7,241.4z"
			/>
	</g>
	<g>
		<path fill="#E782B4" d="M194.6,91.6c0.5,4.6,4.6,7.8,9.1,7.4c4.6-0.5,7.8-4.6,7.4-9.1c-0.5-4.6-4.6-7.8-9.1-7.4
			C197.5,83,194.2,87.1,194.6,91.6z"/>
	</g>
	<g>
		<path fill="#E782B4" d="M79.7,19.8c0.4,4.1,4.1,7.1,8.2,6.6c4.1-0.4,7.1-4.1,6.6-8.2c-0.4-4.1-4.1-7.1-8.2-6.6
			C82.3,12,79.3,15.7,79.7,19.8z"/>
	</g>
	<g>
		<path fill="#E782B4" d="M11.1,98.5c0.6,5.9,6,10.2,11.9,9.6s10.2-6,9.6-11.9c-0.6-5.9-6-10.2-11.9-9.6S10.5,92.6,11.1,98.5z"/>
	</g>
	<g>
		<path fill="#E782B4" d="M152.7,263.8c0.6,5.7,5.7,9.9,11.5,9.3c5.7-0.6,9.9-5.7,9.3-11.5c-0.6-5.7-5.7-9.9-11.5-9.3
			S152.1,258,152.7,263.8z"/>
	</g>
	<g>
		<path fill="#E782B4" d="M67.1,213.9c0.5,4.5,4.5,7.8,9.1,7.3c4.5-0.5,7.8-4.5,7.3-9.1c-0.5-4.5-4.5-7.8-9.1-7.3
			C69.9,205.4,66.6,209.4,67.1,213.9z"/>
	</g>
	<g>
		<path fill="#E782B4" d="M128.4,76c0.2,2.2,2.2,3.8,4.4,3.6s3.8-2.2,3.6-4.4c-0.2-2.2-2.2-3.8-4.4-3.6S128.2,73.8,128.4,76z"/>
	</g>
	<g>
		<path fill="#E782B4" d="M94.1,216.8c0.5,4.7,4.7,8.1,9.4,7.6s8.1-4.7,7.6-9.4c-0.5-4.7-4.7-8.1-9.4-7.6
			C97,207.9,93.6,212.1,94.1,216.8z"/>
	</g>
	<g>
		<path fill="#E782B4" d="M0.1,35.1c0.7,6.7,6.7,11.5,13.3,10.8s11.5-6.7,10.8-13.3s-6.7-11.5-13.3-10.8S-0.6,28.4,0.1,35.1z"/>
	</g>
	<g>
		<path fill="#E782B4" d="M214.8,55.2c0.8,7.6,7.6,13.1,15.3,12.3c7.6-0.8,13.1-7.6,12.3-15.3s-7.6-13.1-15.3-12.3
			C219.5,40.8,214,47.6,214.8,55.2z"/>
	</g>
	<g>
		<path fill="#E782B4" d="M21.8,277.7c0.7,6.3,6.3,10.9,12.7,10.2c6.3-0.7,10.9-6.3,10.2-12.7s-6.3-10.9-12.7-10.2
			S21.1,271.4,21.8,277.7z"/>
	</g>
	<g>
		<path fill="#E782B4" d="M75.3,63.7c0.2,2.3,2.3,3.9,4.5,3.7s3.9-2.3,3.7-4.5c-0.2-2.3-2.3-3.9-4.5-3.7
			C76.7,59.4,75.1,61.4,75.3,63.7z"/>
	</g>
	<g>
		<path fill="#E782B4" d="M106.1,95.3c0.6,5.2,5.3,9,10.5,8.5s9-5.3,8.5-10.5c-0.6-5.2-5.3-9-10.5-8.5
			C109.3,85.4,105.5,90.1,106.1,95.3z"/>
	</g>
	<g>
		<path fill="#E782B4" d="M238.7,178.2c0.3,2.9,2.9,4.9,5.7,4.6c2.9-0.3,4.9-2.9,4.6-5.7s-2.9-4.9-5.7-4.6
			C240.5,172.8,238.4,175.3,238.7,178.2z"/>
	</g>
	<g>
		<path fill="#E782B4" d="M101.5,7.4c0.4,3.7,3.7,6.3,7.4,6s6.3-3.7,6-7.4c-0.4-3.7-3.7-6.3-7.4-6S101.1,3.7,101.5,7.4z"/>
	</g>
	<g>
		<line fill="none" stroke="#E782B4" stroke-miterlimit="10" x1="252.8" y1="240.6" x2="202.9" y2="90.7"/>
		<line fill="none" stroke="#E782B4" stroke-miterlimit="10" x1="252.8" y1="240.6" x2="75.3" y2="213.1"/>
		<line fill="none" stroke="#E782B4" stroke-miterlimit="10" x1="252.8" y1="240.6" x2="12.1" y2="33.8"/>
		<line fill="none" stroke="#E782B4" stroke-miterlimit="10" x1="252.8" y1="240.6" x2="243.9" y2="177.6"/>
		<line fill="none" stroke="#E782B4" stroke-miterlimit="10" x1="202.9" y1="90.7" x2="87.2" y2="19"/>
		<line fill="none" stroke="#E782B4" stroke-miterlimit="10" x1="202.9" y1="90.7" x2="75.3" y2="213.1"/>
		<line fill="none" stroke="#E782B4" stroke-miterlimit="10" x1="202.9" y1="90.7" x2="228.6" y2="53.8"/>
		<line fill="none" stroke="#E782B4" stroke-miterlimit="10" x1="87.2" y1="19" x2="21.8" y2="97.4"/>
		<line fill="none" stroke="#E782B4" stroke-miterlimit="10" x1="87.2" y1="19" x2="75.3" y2="213.1"/>
		<line fill="none" stroke="#E782B4" stroke-miterlimit="10" x1="21.8" y1="97.4" x2="163.1" y2="262.7"/>
		<line fill="none" stroke="#E782B4" stroke-miterlimit="10" x1="21.8" y1="97.4" x2="132.5" y2="75.6"/>
		<line fill="none" stroke="#E782B4" stroke-miterlimit="10" x1="21.8" y1="97.4" x2="12.1" y2="33.8"/>
		<line fill="none" stroke="#E782B4" stroke-miterlimit="10" x1="163.1" y1="262.7" x2="132.5" y2="75.6"/>
		<line fill="none" stroke="#E782B4" stroke-miterlimit="10" x1="163.1" y1="262.7" x2="12.1" y2="33.8"/>
		<line fill="none" stroke="#E782B4" stroke-miterlimit="10" x1="75.3" y1="213.1" x2="12.1" y2="33.8"/>
		<line fill="none" stroke="#E782B4" stroke-miterlimit="10" x1="75.3" y1="213.1" x2="228.6" y2="53.8"/>
		<line fill="none" stroke="#E782B4" stroke-miterlimit="10" x1="132.5" y1="75.6" x2="102.6" y2="215.9"/>
		<line fill="none" stroke="#E782B4" stroke-miterlimit="10" x1="132.5" y1="75.6" x2="33.2" y2="276.5"/>
		<line fill="none" stroke="#E782B4" stroke-miterlimit="10" x1="102.6" y1="215.9" x2="33.2" y2="276.5"/>
		<line fill="none" stroke="#E782B4" stroke-miterlimit="10" x1="102.6" y1="215.9" x2="115.6" y2="94.3"/>
		<line fill="none" stroke="#E782B4" stroke-miterlimit="10" x1="12.1" y1="33.8" x2="228.6" y2="53.8"/>
		<line fill="none" stroke="#E782B4" stroke-miterlimit="10" x1="12.1" y1="33.8" x2="33.2" y2="276.5"/>
		<line fill="none" stroke="#E782B4" stroke-miterlimit="10" x1="12.1" y1="33.8" x2="115.6" y2="94.3"/>
		<line fill="none" stroke="#E782B4" stroke-miterlimit="10" x1="12.1" y1="33.8" x2="132.5" y2="75.6"/>
		<line fill="none" stroke="#E782B4" stroke-miterlimit="10" x1="228.6" y1="53.8" x2="79.4" y2="63.2"/>
		<line fill="none" stroke="#E782B4" stroke-miterlimit="10" x1="228.6" y1="53.8" x2="115.6" y2="94.3"/>
		<line fill="none" stroke="#E782B4" stroke-miterlimit="10" x1="228.6" y1="53.8" x2="243.9" y2="177.6"/>
		<line fill="none" stroke="#E782B4" stroke-miterlimit="10" x1="33.2" y1="276.5" x2="243.9" y2="177.6"/>
		<line fill="none" stroke="#E782B4" stroke-miterlimit="10" x1="79.4" y1="63.2" x2="115.6" y2="94.3"/>
		<line fill="none" stroke="#E782B4" stroke-miterlimit="10" x1="115.6" y1="94.3" x2="243.9" y2="177.6"/>
		<line fill="none" stroke="#E782B4" stroke-miterlimit="10" x1="115.6" y1="94.3" x2="108.1" y2="6.7"/>
		<line fill="none" stroke="#E782B4" stroke-miterlimit="10" x1="243.9" y1="177.6" x2="108.1" y2="6.7"/>
	</g>
</g>
<g>
	<path fill="#222222" d="M110.2,96.1H86c-8.1,4.6-15.1,7.7-24.1,10.9v23c5.7-1.4,12.6-3.6,17.8-5.9V163H61.9v23.2h65.1V163h-16.9
		V96.1z"/>
	<path fill="#222222" d="M182.1,124.6c-8.5,0-15.6,3.5-20.7,9.7l0.6-16h43.1V96.1h-66.5l-2.4,51.5l28.6,3.5c1.5-4,4.1-6,7.2-6
		c4.8,0,7.1,3.2,7.1,12.2c0,8.1-2.7,11.3-7.1,11.3c-4.4,0-7.8-3.3-8.6-13.3l-29.1,2.8c1.9,19.2,14,30,37.4,30
		c23.5,0,39.1-12.1,39.1-33.5C210.8,136.4,200.4,124.6,182.1,124.6z"/>
</g>
</svg>
